<svg viewBox="0 0 20 20" fill="currentColor" xmlns="http://www.w3.org/2000/svg">
<g clip-path="url(#clip0_1_104)">
<path d="M17.5758 6.15265C17.5758 4.07 15.8573 2.38167 13.7374 2.38167H6.26263C4.14275 2.38167 2.42424 4.07 2.42424 6.15265V9.8244C2.42424 11.9071 4.14275 13.5954 6.26263 13.5954H10.3753L14.3939 15.8748V13.5954H17.5758V6.15265ZM20 15.9771H16.8182V20L9.72567 15.9771H6.26263C2.80387 15.9771 2.37521e-07 13.2224 0 9.8244V6.15265C-3.61152e-08 2.75464 2.80387 0 6.26263 0H13.7374C17.1961 0 20 2.75464 20 6.15265V15.9771Z"/>
<path d="M8.9899 7.04578C8.9899 7.70346 8.46983 8.23662 7.82828 8.23662C7.18674 8.23662 6.66667 7.70346 6.66667 7.04578C6.66667 6.3881 7.18674 5.85494 7.82828 5.85494C8.46983 5.85494 8.9899 6.3881 8.9899 7.04578Z"/>
<path d="M13.4343 7.04578C13.4343 7.70346 12.8917 8.23662 12.2222 8.23662C11.5528 8.23662 11.0101 7.70346 11.0101 7.04578C11.0101 6.3881 11.5528 5.85494 12.2222 5.85494C12.8917 5.85494 13.4343 6.3881 13.4343 7.04578Z"/>
</g>
<defs>
<clipPath id="clip0_1_104">
<rect width="20" height="20"/>
</clipPath>
</defs>
</svg>
