<svg width="32" height="32" viewBox="0 0 32 32" fill="none" xmlns="http://www.w3.org/2000/svg">
<rect width="32" height="32" fill="#75FEB6"/>
<path d="M23.5758 12.1527C23.5758 10.07 21.8573 8.38167 19.7374 8.38167H12.2626C10.1427 8.38167 8.42424 10.07 8.42424 12.1527V15.8244C8.42424 17.9071 10.1427 19.5954 12.2626 19.5954H16.3753L20.3939 21.8748V19.5954H23.5758V12.1527ZM26 21.9771H22.8182V26L15.7257 21.9771H12.2626C8.80387 21.9771 6 19.2224 6 15.8244V12.1527C6 8.75464 8.80387 6 12.2626 6H19.7374C23.1961 6 26 8.75464 26 12.1527V21.9771Z" fill="#196F42"/>
<path d="M14.9899 13.0458C14.9899 13.7035 14.4698 14.2366 13.8283 14.2366C13.1867 14.2366 12.6667 13.7035 12.6667 13.0458C12.6667 12.3881 13.1867 11.8549 13.8283 11.8549C14.4698 11.8549 14.9899 12.3881 14.9899 13.0458Z" fill="#196F42"/>
<path d="M19.4343 13.0458C19.4343 13.7035 18.8917 14.2366 18.2222 14.2366C17.5528 14.2366 17.0101 13.7035 17.0101 13.0458C17.0101 12.3881 17.5528 11.8549 18.2222 11.8549C18.8917 11.8549 19.4343 12.3881 19.4343 13.0458Z" fill="#196F42"/>
</svg>
