<svg viewBox="0 0 258 81" fill="white" xmlns="http://www.w3.org/2000/svg">
<path d="M72.0606 24.9182C72.0606 16.4835 65.0147 9.64577 56.3232 9.64577H25.6768C16.9853 9.64577 9.93939 16.4835 9.93939 24.9182V39.7888C9.93939 48.2236 16.9853 55.0613 25.6768 55.0613H42.5389L59.0152 64.293V55.0613H72.0606V24.9182ZM82 64.7071H68.9545V81L39.8753 64.7071H25.6768C11.4959 64.7071 9.73835e-07 53.5508 0 39.7888V24.9182C-1.48072e-07 11.1563 11.4959 0 25.6768 0H56.3232C70.5041 0 82 11.1563 82 24.9182V64.7071Z" fill="white"/>
<path d="M36.8586 28.5354C36.8586 31.199 34.7263 33.3583 32.096 33.3583C29.4656 33.3583 27.3333 31.199 27.3333 28.5354C27.3333 25.8718 29.4656 23.7125 32.096 23.7125C34.7263 23.7125 36.8586 25.8718 36.8586 28.5354Z" fill="white"/>
<path d="M55.0808 28.5354C55.0808 31.199 52.8558 33.3583 50.1111 33.3583C47.3664 33.3583 45.1414 31.199 45.1414 28.5354C45.1414 25.8718 47.3664 23.7125 50.1111 23.7125C52.8558 23.7125 55.0808 25.8718 55.0808 28.5354Z" fill="white"/>
<path d="M129.968 38.8V13.6H138.896V64H129.968V47.68H103.28V64H94.4V13.6H103.28V43.216L129.968 38.8Z" fill="white"/>
<path d="M164.977 32.896C169.68 35.104 172.992 39.568 173.712 44.704C173.856 45.472 173.904 46.192 173.904 46.96V48.448C173.904 49.168 173.856 49.936 173.712 50.656H152.016C152.928 53.248 155.424 55.12 158.305 55.12C160.801 55.12 162.913 53.776 164.113 51.76L170.833 57.712C167.905 61.648 163.297 64 158.305 64C155.952 64 153.649 63.472 151.633 62.512C147.025 60.304 143.665 55.888 142.896 50.656C142.801 49.936 142.753 49.168 142.753 48.448V46.96C142.753 46.192 142.801 45.472 142.896 44.704C143.665 39.472 147.025 35.056 151.633 32.896C153.649 31.936 155.952 31.36 158.305 31.36C160.704 31.36 162.96 31.936 164.977 32.896ZM152.016 44.704H164.592C164.305 43.792 163.729 42.928 163.057 42.208C161.857 41.008 160.176 40.288 158.305 40.288C155.424 40.288 152.928 42.112 152.016 44.704Z" fill="white"/>
<path d="M177.744 64V16.528H186.624V64H177.744Z" fill="white"/>
<path d="M209.239 31.312C216.583 31.312 222.583 37.312 222.583 44.656V50.608C222.583 58 216.583 63.952 209.239 63.952C202.951 63.952 201.799 58.192 201.799 55.072H200.311V78.784H191.431V47.632C191.431 41.152 195.079 35.536 200.311 32.896C202.327 31.888 204.631 31.312 206.983 31.312C207.367 31.312 207.751 31.36 208.135 31.36C208.519 31.36 208.855 31.312 209.239 31.312ZM213.655 48.4V46.912C213.655 43.216 210.679 40.24 206.983 40.24C205.159 40.24 203.479 40.96 202.279 42.16C201.079 43.408 200.311 45.04 200.311 46.912V48.4C200.311 50.224 201.079 51.904 202.279 53.104C203.479 54.304 205.159 55.072 206.983 55.072C210.679 55.072 213.655 52.048 213.655 48.4Z" fill="white"/>
<path d="M246.704 67.936C246.992 67.6 247.28 67.264 247.52 66.928H257.12C255.968 71.488 252.8 75.28 248.624 77.296C246.608 78.256 244.352 78.784 241.952 78.784C239.6 78.784 237.296 78.256 235.28 77.296C231.104 75.28 227.984 71.488 226.832 66.928H236.432C237.632 68.704 239.648 69.904 241.952 69.904C243.824 69.904 245.504 69.136 246.704 67.936ZM248.624 31.312H257.552V48.4C257.552 54.592 253.904 59.968 248.624 62.464C246.608 63.424 244.352 63.952 241.952 63.952C239.6 63.952 237.296 63.424 235.28 62.464C230.048 59.968 226.4 54.592 226.4 48.4V31.312H235.28V48.4C235.28 52.048 238.304 55.072 241.952 55.072C243.824 55.072 245.504 54.304 246.704 53.104C247.904 51.904 248.624 50.224 248.624 48.4V31.312Z" fill="white"/>
</svg>
