<svg width="260" height="256" viewBox="0 0 260 256" fill="none" xmlns="http://www.w3.org/2000/svg">
<rect width="260" height="256" fill="#75FEB6"/>
<path d="M83.968 127.3V102.1H92.896V152.5H83.968V136.18H57.28V152.5H48.4V102.1H57.28V131.716L83.968 127.3ZM118.977 121.396C123.681 123.604 126.993 128.068 127.713 133.204C127.857 133.972 127.905 134.692 127.905 135.46V136.948C127.905 137.668 127.857 138.436 127.713 139.156H106.017C106.929 141.748 109.424 143.62 112.305 143.62C114.801 143.62 116.913 142.276 118.113 140.26L124.833 146.212C121.905 150.148 117.297 152.5 112.305 152.5C109.953 152.5 107.648 151.972 105.633 151.012C101.025 148.804 97.6645 144.388 96.8965 139.156C96.8005 138.436 96.7525 137.668 96.7525 136.948V135.46C96.7525 134.692 96.8005 133.972 96.8965 133.204C97.6645 127.972 101.025 123.556 105.633 121.396C107.648 120.436 109.953 119.86 112.305 119.86C114.705 119.86 116.961 120.436 118.977 121.396ZM106.017 133.204H118.593C118.305 132.292 117.729 131.428 117.057 130.708C115.857 129.508 114.177 128.788 112.305 128.788C109.424 128.788 106.929 130.612 106.017 133.204ZM131.744 152.5V105.028H140.624V152.5H131.744ZM163.239 119.812C170.583 119.812 176.583 125.812 176.583 133.156V139.108C176.583 146.5 170.583 152.452 163.239 152.452C156.951 152.452 155.799 146.692 155.799 143.572H154.311V167.284H145.431V136.132C145.431 129.652 149.079 124.036 154.311 121.396C156.327 120.388 158.631 119.812 160.983 119.812C161.367 119.812 161.751 119.86 162.135 119.86C162.519 119.86 162.855 119.812 163.239 119.812ZM167.655 136.9V135.412C167.655 131.716 164.679 128.74 160.983 128.74C159.159 128.74 157.479 129.46 156.279 130.66C155.079 131.908 154.311 133.54 154.311 135.412V136.9C154.311 138.724 155.079 140.404 156.279 141.604C157.479 142.804 159.159 143.572 160.983 143.572C164.679 143.572 167.655 140.548 167.655 136.9ZM200.704 156.436C200.992 156.1 201.28 155.764 201.52 155.428H211.12C209.968 159.988 206.8 163.78 202.624 165.796C200.608 166.756 198.352 167.284 195.952 167.284C193.6 167.284 191.296 166.756 189.28 165.796C185.104 163.78 181.984 159.988 180.832 155.428H190.432C191.632 157.204 193.648 158.404 195.952 158.404C197.824 158.404 199.504 157.636 200.704 156.436ZM202.624 119.812H211.552V136.9C211.552 143.092 207.904 148.468 202.624 150.964C200.608 151.924 198.352 152.452 195.952 152.452C193.6 152.452 191.296 151.924 189.28 150.964C184.048 148.468 180.4 143.092 180.4 136.9V119.812H189.28V136.9C189.28 140.548 192.304 143.572 195.952 143.572C197.824 143.572 199.504 142.804 200.704 141.604C201.904 140.404 202.624 138.724 202.624 136.9V119.812Z" fill="#196F42"/>
</svg>
